<?xml version="1.0" encoding="UTF-8" standalone="no"?><!DOCTYPE svg PUBLIC "-//W3C//DTD SVG 1.1//EN" "http://www.w3.org/Graphics/SVG/1.1/DTD/svg11.dtd"><svg width="100%" height="100%" viewBox="0 0 5834 3542" version="1.1" xmlns="http://www.w3.org/2000/svg" xmlns:xlink="http://www.w3.org/1999/xlink" xml:space="preserve" xmlns:serif="http://www.serif.com/" style="fill-rule:evenodd;clip-rule:evenodd;"><rect x="0" y="0" width="5833.33" height="3541.67" style="fill:#f8fafc;"/><text x="250px" y="291.667px" style="font-family:'ArialMT', 'Arial', sans-serif;font-size:66.667px;fill:#0f172a;">OpenZooData <tspan x="683.626px 728.092px " y="291.667px 291.667px ">Ar</tspan>chitecture</text><text x="250px" y="450px" style="font-family:'ArialMT', 'Arial', sans-serif;font-size:66.667px;fill:#475569;">Federated publishing infrastructure for zoo biodiversity data</text><path d="M1500,866.667l0,391.666c0,41.394 -33.606,75 -75,75l-975,0c-41.394,0 -75,-33.606 -75,-75l0,-391.666c0,-41.394 33.606,-75 75,-75l975,-0c41.394,-0 75,33.606 75,75Z" style="fill:#eef6ff;stroke:#93c5fd;stroke-width:8.33px;"/><text x="475px" y="966.667px" style="font-family:'AppleColorEmoji', 'Apple Color Emoji';font-size:66.667px;fill:#0f172a;">👥</text><text x="658.333px" y="975px" style="font-family:'ArialMT', 'Arial', sans-serif;font-size:66.667px;fill:#0f172a;">Zoo Staf<tspan x="909.115px 927.637px " y="975px 975px ">f </tspan>/ <tspan x="981.999px 1015.33px 1052.41px " y="975px 975px 975px ">Too</tspan>ls</text><text x="475px" y="1116.67px" style="font-family:'ArialMT', 'Arial', sans-serif;font-size:66.667px;fill:#475569;">Admin UI, ZooCreator</text><g transform="matrix(66.6667,0,0,66.6667,1049.19,1216.67)"></g><g transform="matrix(66.6667,0,0,66.6667,1067.71,1216.67)"></g><text x="475px" y="1216.67px" style="font-family:'ArialMT', 'Arial', sans-serif;font-size:66.667px;fill:#475569;">OCR-assisted workﬂows</text><path d="M3562.5,825l0,516.667c0,41.393 -33.606,75 -75,75l-1141.67,-0c-41.393,-0 -75,-33.607 -75,-75l0,-516.667c0,-41.394 33.607,-75 75,-75l1141.67,0c41.394,0 75,33.606 75,75Z" style="fill:#fff;stroke:#cbd5e1;stroke-width:8.33px;"/><text x="2370.83px" y="925px" style="font-family:'AppleColorEmoji', 'Apple Color Emoji';font-size:66.667px;fill:#0f172a;">🦁</text><text x="2554.17px" y="933.333px" style="font-family:'ArialMT', 'Arial', sans-serif;font-size:66.667px;fill:#0f172a;">OpenZooData Server</text><text x="2370.83px" y="1075px" style="font-family:'ArialMT', 'Arial', sans-serif;font-size:66.667px;fill:#475569;">Flask REST<tspan x="2725.23px 2740.07px 2784.54px " y="1075px 1075px 1075px "> AP</tspan>I</text><text x="2370.83px" y="1175px" style="font-family:'ArialMT', 'Arial', sans-serif;font-size:66.667px;fill:#475569;">RSS feeds · SQLite export</text><text x="2370.83px" y="1275px" style="font-family:'ArialMT', 'Arial', sans-serif;font-size:66.667px;fill:#475569;">Media · <tspan x="2607.97px 2652.44px " y="1275px 1275px ">Au</tspan>th · Publishing</text><path d="M5416.67,741.667l-0,350c-0,41.393 -33.607,75 -75,75l-933.334,-0c-41.393,-0 -75,-33.607 -75,-75l0,-350c0,-41.394 33.607,-75 75,-75l933.334,-0c41.393,-0 75,33.606 75,75Z" style="fill:#f0fdf4;stroke:#86efac;stroke-width:8.33px;"/><text x="4433.33px" y="841.667px" style="font-family:'AppleColorEmoji', 'Apple Color Emoji';font-size:66.667px;fill:#0f172a;">🌍</text><text x="4616.67px" y="850px" style="font-family:'ArialMT', 'Arial', sans-serif;font-size:66.667px;fill:#0f172a;">Public Consumers</text><text x="4433.33px" y="991.667px" style="font-family:'ArialMT', 'Arial', sans-serif;font-size:66.667px;fill:#475569;">Researchers</text><text x="4433.33px" y="1091.67px" style="font-family:'ArialMT', 'Arial', sans-serif;font-size:66.667px;fill:#475569;">Apps · <tspan x="4640.85px 4685.32px " y="1091.67px 1091.67px ">Ag</tspan>gregators</text><path d="M1854.46,1733.16l0,350c0,41.394 -33.606,75 -75,75l-933.333,0c-41.394,0 -75,-33.606 -75,-75l-0,-350c-0,-41.394 33.606,-75 75,-75l933.333,0c41.394,0 75,33.606 75,75Z" style="fill:#fff7ed;stroke:#fdba74;stroke-width:8.33px;"/><text x="942.382px" y="1822.37px" style="font-family:'AppleColorEmoji', 'Apple Color Emoji';font-size:66.667px;fill:#0f172a;">🐘</text><text x="1125.72px" y="1830.7px" style="font-family:'ArialMT', 'Arial', sans-serif;font-size:66.667px;fill:#0f172a;">PostgreSQL<tspan x="1486.39px 1504.91px " y="1830.7px 1830.7px "> Z</tspan>oo DB</text><text x="942.382px" y="1972.37px" style="font-family:'ArialMT', 'Arial', sans-serif;font-size:66.667px;fill:#475569;">Species, enclosures</text><text x="942.382px" y="2072.37px" style="font-family:'ArialMT', 'Arial', sans-serif;font-size:66.667px;fill:#475569;">births, feeding times</text><path d="M3777.38,2059.03l-0,350c-0,41.393 -33.607,75 -75,75l-891.667,-0c-41.394,-0 -75,-33.607 -75,-75l-0,-350c-0,-41.394 33.606,-75 75,-75l891.667,-0c41.393,-0 75,33.606 75,75Z" style="fill:#fff7ed;stroke:#fdba74;stroke-width:8.33px;"/><text x="2835.72px" y="2159.03px" style="font-family:'AppleColorEmoji', 'Apple Color Emoji';font-size:66.667px;fill:#0f172a;">🔐</text><text x="3019.05px" y="2167.36px" style="font-family:'ArialMT', 'Arial', sans-serif;font-size:66.667px;fill:#0f172a;">Auth DB</text><text x="2835.72px" y="2309.03px" style="font-family:'ArialMT', 'Arial', sans-serif;font-size:66.667px;fill:#475569;">Users, roles</text><text x="2835.72px" y="2409.03px" style="font-family:'ArialMT', 'Arial', sans-serif;font-size:66.667px;fill:#475569;">tokens, tenants</text><path d="M5423.74,1533.59l-0,329.167c-0,41.394 -33.607,75 -75,75l-933.334,-0c-41.393,-0 -75,-33.606 -75,-75l0,-329.167c0,-41.393 33.607,-75 75,-75l933.334,0c41.393,0 75,33.607 75,75Z" style="fill:#f0fdf4;stroke:#86efac;stroke-width:8.33px;"/><text x="4440.41px" y="1633.59px" style="font-family:'AppleColorEmoji', 'Apple Color Emoji';font-size:66.667px;fill:#0f172a;">📚</text><text x="4623.74px" y="1641.92px" style="font-family:'ArialMT', 'Arial', sans-serif;font-size:66.667px;fill:#0f172a;">Wikidata</text><text x="4440.41px" y="1783.59px" style="font-family:'ArialMT', 'Arial', sans-serif;font-size:66.667px;fill:#475569;">Q-IDs, taxonomy</text><text x="4440.41px" y="1883.59px" style="font-family:'ArialMT', 'Arial', sans-serif;font-size:66.667px;fill:#475569;">labels, media</text><path d="M5416.67,2408.33l-0,329.167c-0,41.394 -33.607,75 -75,75l-933.334,0c-41.393,0 -75,-33.606 -75,-75l0,-329.167c0,-41.393 33.607,-75 75,-75l933.334,0c41.393,0 75,33.607 75,75Z" style="fill:#f0fdf4;stroke:#86efac;stroke-width:8.33px;"/><text x="4433.33px" y="2508.33px" style="font-family:'AppleColorEmoji', 'Apple Color Emoji';font-size:66.667px;fill:#0f172a;">🧬</text><text x="4616.67px" y="2516.67px" style="font-family:'ArialMT', 'Arial', sans-serif;font-size:66.667px;fill:#0f172a;">GBIF Backbone</text><text x="4433.33px" y="2658.33px" style="font-family:'ArialMT', 'Arial', sans-serif;font-size:66.667px;fill:#475569;">T<tspan x="4466.67px 4503.74px " y="2658.33px 2658.33px ">ax</tspan>on keys</text><text x="4433.33px" y="2758.33px" style="font-family:'ArialMT', 'Arial', sans-serif;font-size:66.667px;fill:#475569;">taxonomy anchor</text><path d="M2848.44,2968.8l-0,245.833c-0,41.394 -33.607,75 -75,75l-1691.04,0c-41.393,0 -75,-33.606 -75,-75l0,-245.833c0,-41.394 33.607,-75 75,-75l1691.04,-0c41.393,-0 75,33.606 75,75Z" style="fill:#eef6ff;stroke:#93c5fd;stroke-width:10.26px;"/><text x="1107.41px" y="3068.81px" style="font-family:'AppleColorEmoji', 'Apple Color Emoji';font-size:66.667px;fill:#0f172a;">💾</text><g transform="matrix(66.6667,0,0,66.6667,1361.12,3077.14)"></g><g transform="matrix(66.6667,0,0,66.6667,1379.64,3077.14)"></g><text x="1290.74px" y="3077.14px" style="font-family:'ArialMT', 'Arial', sans-serif;font-size:66.667px;fill:#0f172a;">Ofﬂine SQLite Bundle</text><g transform="matrix(66.6667,0,0,66.6667,1325.99,3218.8)"></g><g transform="matrix(66.6667,0,0,66.6667,1344.52,3218.8)"></g><text x="1107.41px" y="3218.81px" style="font-family:'ArialMT', 'Arial', sans-serif;font-size:66.667px;fill:#475569;">Mobile-ﬁrst distribution without permanent connectivity</text><path d="M1500,1062.5l770.833,0" style="fill:none;fill-rule:nonzero;stroke:#334155;stroke-width:12.5px;"/><path d="M3562.5,1000l770.833,-83.333" style="fill:none;fill-rule:nonzero;stroke:#334155;stroke-width:12.5px;"/><path d="M2275.89,1391.17l-415.294,293.171" style="fill:none;fill-rule:nonzero;stroke:#334155;stroke-width:12.23px;"/><path d="M3101.4,1417.36l121.859,556.218" style="fill:none;fill-rule:nonzero;stroke:#334155;stroke-width:10.86px;"/><path d="M3562.82,1115.12l774.185,510.948" style="fill:none;fill-rule:nonzero;stroke:#334155;stroke-width:11.08px;"/><path d="M3562.5,1208.33l770.833,1291.67" style="fill:none;fill-rule:nonzero;stroke:#334155;stroke-width:12.5px;"/><path d="M2670.26,1428.99l-603.264,1454.69" style="fill:none;fill-rule:nonzero;stroke:#334155;stroke-width:13.01px;"/><path d="M2863.92,3108.58l770.833,-0" style="fill:none;fill-rule:nonzero;stroke:#334155;stroke-width:12.5px;"/><path d="M4993.85,2996.08l-0,286.454c-0,41.394 -33.607,75 -75,75l-1209.1,-0c-41.393,-0 -75,-33.606 -75,-75l0,-286.454c0,-41.394 33.607,-75 75,-75l1209.1,-0c41.393,-0 75,33.606 75,75Z" style="fill:#f0fdf4;stroke:#86efac;stroke-width:9.84px;"/><text x="3729.66px" y="3096.84px" style="font-family:'AppleColorEmoji', 'Apple Color Emoji';font-size:66.667px;fill:#0f172a;">📱</text><g transform="matrix(66.6667,0,0,66.6667,3988.46,3104.41)"></g><g transform="matrix(66.6667,0,0,66.6667,4006.98,3104.41)"></g><text x="3918.08px" y="3104.41px" style="font-family:'ArialMT', 'Arial', sans-serif;font-size:66.667px;fill:#0f172a;">Ofﬂine <tspan x="4125.6px 4170.07px " y="3104.41px 3104.41px ">Ap</tspan>ps</text><text x="3734.75px" y="3246.08px" style="font-family:'ArialMT', 'Arial', sans-serif;font-size:66.667px;fill:#475569;">ZooGuide, <tspan x="4060.89px 4105.36px " y="3246.08px 3246.08px ">An</tspan>droid</text><text x="4333.65px" y="3239.69px" style="font-family:'ArialMT', 'Arial', sans-serif;font-size:66.667px;fill:#475569;">other clients</text></svg>