<svg xmlns="http://www.w3.org/2000/svg" width="1400" height="850" viewBox="0 0 1400 850" role="img" aria-labelledby="title desc">
  <title id="title">Federation Model</title>
  <desc id="desc">Each zoo remains the authoritative publisher of its own data</desc>
  <defs>
    <style>
      .bg { fill: #f8fafc; }
      .title { font: 700 44px -apple-system, BlinkMacSystemFont, "Segoe UI", sans-serif; fill: #0f172a; }
      .subtitle { font: 400 22px -apple-system, BlinkMacSystemFont, "Segoe UI", sans-serif; fill: #475569; }
      .box { fill: #ffffff; stroke: #cbd5e1; stroke-width: 2; rx: 18; }
      .box2 { fill: #eef6ff; stroke: #93c5fd; stroke-width: 2; rx: 18; }
      .box3 { fill: #f0fdf4; stroke: #86efac; stroke-width: 2; rx: 18; }
      .box4 { fill: #fff7ed; stroke: #fdba74; stroke-width: 2; rx: 18; }
      .label { font: 700 22px -apple-system, BlinkMacSystemFont, "Segoe UI", sans-serif; fill: #0f172a; }
      .small { font: 400 16px -apple-system, BlinkMacSystemFont, "Segoe UI", sans-serif; fill: #475569; }
      .tiny { font: 400 14px -apple-system, BlinkMacSystemFont, "Segoe UI", sans-serif; fill: #64748b; }
      .arrow { stroke: #334155; stroke-width: 3; fill: none; marker-end: url(#arrowhead); }
      .dashed { stroke: #64748b; stroke-width: 3; fill: none; stroke-dasharray: 8 8; marker-end: url(#arrowhead); }
      .pill { fill: #e2e8f0; rx: 12; }
      .pilltext { font: 600 14px -apple-system, BlinkMacSystemFont, "Segoe UI", sans-serif; fill: #334155; }
    </style>
    <marker id="arrowhead" markerWidth="12" markerHeight="8" refX="10" refY="4" orient="auto">
      <polygon points="0 0, 12 4, 0 8" fill="#334155"/>
    </marker>
  </defs>
  <rect class="bg" x="0" y="0" width="1400" height="850"/>
  <text class="title" x="60" y="70">Federation Model</text>
  <text class="subtitle" x="60" y="108">Each zoo remains the authoritative publisher of its own data</text>
  <rect class="box2" x="100" y="200" width="280" height="110" rx="18"/>
<text class="label" x="124" y="242">🏛️</text>
<text class="label" x="168" y="244">Zoo Berlin Node</text>
<text class="small" x="124" y="278">REST API · RSS · SQLite</text>
<rect class="box2" x="100" y="390" width="280" height="110" rx="18"/>
<text class="label" x="124" y="432">🏛️</text>
<text class="label" x="168" y="434">Zoo Münster Node</text>
<text class="small" x="124" y="468">REST API · RSS · SQLite</text>
<rect class="box2" x="100" y="580" width="280" height="110" rx="18"/>
<text class="label" x="124" y="622">🏛️</text>
<text class="label" x="168" y="624">Zoo Rheine Node</text>
<text class="small" x="124" y="658">REST API · RSS · SQLite</text>
<rect class="box2" x="530" y="290" width="280" height="110" rx="18"/>
<text class="label" x="554" y="332">🏛️</text>
<text class="label" x="598" y="334">Zoo Osnabrück Node</text>
<text class="small" x="554" y="368">REST API · RSS · SQLite</text>
<rect class="box2" x="530" y="500" width="280" height="110" rx="18"/>
<text class="label" x="554" y="542">🏛️</text>
<text class="label" x="598" y="544">Future Zoo Node</text>
<text class="small" x="554" y="578">REST API · RSS · SQLite</text>
<rect class="box3" x="980" y="310" width="300" height="170" rx="18"/>
<text class="label" x="1004" y="352">📡</text>
<text class="label" x="1048" y="354">Federation Layer</text>
<text class="small" x="1004" y="388">RSS discovery</text>
<text class="small" x="1004" y="412">optional aggregators</text>
<text class="small" x="1004" y="436">directories and apps</text>
<path class="arrow" d="M380 255 L980 395"/><path class="arrow" d="M380 445 L980 395"/><path class="arrow" d="M380 635 L980 395"/><path class="arrow" d="M810 345 L980 395"/><path class="arrow" d="M810 555 L980 395"/><rect class="box" x="980" y="610" width="300" height="115" rx="18"/>
<text class="label" x="1004" y="652">🌐</text>
<text class="label" x="1048" y="654">Consumers</text>
<text class="small" x="1004" y="688">Researchers · apps · data portals</text>
<path class="arrow" d="M1130 480 L1130 610"/>
</svg>