<?xml version="1.0" encoding="UTF-8" standalone="no"?><!DOCTYPE svg PUBLIC "-//W3C//DTD SVG 1.1//EN" "http://www.w3.org/Graphics/SVG/1.1/DTD/svg11.dtd"><svg width="100%" height="100%" viewBox="0 0 5834 3542" version="1.1" xmlns="http://www.w3.org/2000/svg" xmlns:xlink="http://www.w3.org/1999/xlink" xml:space="preserve" xmlns:serif="http://www.serif.com/" style="fill-rule:evenodd;clip-rule:evenodd;"><rect x="0" y="0" width="5833.33" height="3541.67" style="fill:#f8fafc;"/><text x="250px" y="291.667px" style="font-family:'ArialMT', 'Arial', sans-serif;font-size:66.667px;fill:#0f172a;">Federation Model</text><text x="250px" y="450px" style="font-family:'ArialMT', 'Arial', sans-serif;font-size:66.667px;fill:#475569;">Each zoo remains the authoritative publisher of its own data</text><path d="M1583.33,908.333l0,308.334c0,41.393 -33.606,75 -75,75l-1016.67,-0c-41.394,-0 -75,-33.607 -75,-75l-0,-308.334c-0,-41.393 33.606,-75 75,-75l1016.67,0c41.394,0 75,33.607 75,75Z" style="fill:#eef6ff;stroke:#93c5fd;stroke-width:8.33px;"/><text x="516.667px" y="1008.33px" style="font-family:'AppleColorEmoji', 'Apple Color Emoji';font-size:66.667px;fill:#0f172a;">🏛️</text><text x="700px" y="1016.67px" style="font-family:'ArialMT', 'Arial', sans-serif;font-size:66.667px;fill:#0f172a;">Zoo Berlin Node</text><text x="516.667px" y="1158.33px" style="font-family:'ArialMT', 'Arial', sans-serif;font-size:66.667px;fill:#475569;">REST<tspan x="693.262px 708.105px 752.572px " y="1158.33px 1158.33px 1158.33px "> AP</tspan>I · RSS · SQLite</text><path d="M1583.33,1700l0,308.333c0,41.394 -33.606,75 -75,75l-1016.67,0c-41.394,0 -75,-33.606 -75,-75l-0,-308.333c-0,-41.394 33.606,-75 75,-75l1016.67,0c41.394,0 75,33.606 75,75Z" style="fill:#eef6ff;stroke:#93c5fd;stroke-width:8.33px;"/><text x="516.667px" y="1800px" style="font-family:'AppleColorEmoji', 'Apple Color Emoji';font-size:66.667px;fill:#0f172a;">🏛️</text><text x="700px" y="1808.33px" style="font-family:'ArialMT', 'Arial', sans-serif;font-size:66.667px;fill:#0f172a;">Zoo Münster Node</text><text x="516.667px" y="1950px" style="font-family:'ArialMT', 'Arial', sans-serif;font-size:66.667px;fill:#475569;">REST<tspan x="693.262px 708.105px 752.572px " y="1950px 1950px 1950px "> AP</tspan>I · RSS · SQLite</text><path d="M1583.33,2491.67l0,308.333c0,41.394 -33.606,75 -75,75l-1016.67,0c-41.394,0 -75,-33.606 -75,-75l-0,-308.333c-0,-41.394 33.606,-75 75,-75l1016.67,-0c41.394,-0 75,33.606 75,75Z" style="fill:#eef6ff;stroke:#93c5fd;stroke-width:8.33px;"/><text x="516.667px" y="2591.67px" style="font-family:'AppleColorEmoji', 'Apple Color Emoji';font-size:66.667px;fill:#0f172a;">🏛️</text><text x="700px" y="2600px" style="font-family:'ArialMT', 'Arial', sans-serif;font-size:66.667px;fill:#0f172a;">Zoo Rheine Node</text><text x="516.667px" y="2741.67px" style="font-family:'ArialMT', 'Arial', sans-serif;font-size:66.667px;fill:#475569;">REST<tspan x="693.262px 708.105px 752.572px " y="2741.67px 2741.67px 2741.67px "> AP</tspan>I · RSS · SQLite</text><path d="M3613.2,753.741l-0,308.333c-0,41.394 -33.607,75 -75,75l-1016.67,-0c-41.393,-0 -75,-33.606 -75,-75l0,-308.333c0,-41.394 33.607,-75 75,-75l1016.67,-0c41.393,-0 75,33.606 75,75Z" style="fill:#eef6ff;stroke:#93c5fd;stroke-width:8.33px;"/><text x="2546.54px" y="853.741px" style="font-family:'AppleColorEmoji', 'Apple Color Emoji';font-size:66.667px;fill:#0f172a;">🏛️</text><text x="2729.87px" y="862.074px" style="font-family:'ArialMT', 'Arial', sans-serif;font-size:66.667px;fill:#0f172a;">Zoo Osnabrück Node</text><text x="2546.54px" y="1003.74px" style="font-family:'ArialMT', 'Arial', sans-serif;font-size:66.667px;fill:#475569;">REST<tspan x="2723.13px 2737.98px 2782.44px " y="1003.74px 1003.74px 1003.74px "> AP</tspan>I · RSS · SQLite</text><path d="M3825.36,2387.25l-0,308.333c-0,41.394 -33.607,75 -75,75l-1016.67,0c-41.394,0 -75,-33.606 -75,-75l0,-308.333c0,-41.394 33.606,-75 75,-75l1016.67,-0c41.393,-0 75,33.606 75,75Z" style="fill:#eef6ff;stroke:#93c5fd;stroke-width:8.33px;"/><text x="2758.69px" y="2487.25px" style="font-family:'AppleColorEmoji', 'Apple Color Emoji';font-size:66.667px;fill:#0f172a;">🏛️</text><text x="2942.03px" y="2495.59px" style="font-family:'ArialMT', 'Arial', sans-serif;font-size:66.667px;fill:#0f172a;">Future Zoo Node</text><text x="2758.69px" y="2637.25px" style="font-family:'ArialMT', 'Arial', sans-serif;font-size:66.667px;fill:#475569;">REST<tspan x="2935.29px 2950.13px 2994.6px " y="2637.25px 2637.25px 2637.25px "> AP</tspan>I · RSS · SQLite</text><path d="M5333.33,1366.67l0,558.333c0,41.394 -33.606,75 -75,75l-1100,0c-41.393,0 -75,-33.606 -75,-75l0,-558.333c0,-41.394 33.607,-75 75,-75l1100,-0c41.394,-0 75,33.606 75,75Z" style="fill:#f0fdf4;stroke:#86efac;stroke-width:8.33px;"/><text x="4183.33px" y="1466.67px" style="font-family:'AppleColorEmoji', 'Apple Color Emoji';font-size:66.667px;fill:#0f172a;">📡</text><text x="4366.67px" y="1475px" style="font-family:'ArialMT', 'Arial', sans-serif;font-size:66.667px;fill:#0f172a;">Federation Layer</text><text x="4183.33px" y="1616.67px" style="font-family:'ArialMT', 'Arial', sans-serif;font-size:66.667px;fill:#475569;">RSS discovery</text><text x="4183.33px" y="1716.67px" style="font-family:'ArialMT', 'Arial', sans-serif;font-size:66.667px;fill:#475569;">optional aggregators</text><text x="4183.33px" y="1816.67px" style="font-family:'ArialMT', 'Arial', sans-serif;font-size:66.667px;fill:#475569;">directories and apps</text><path d="M1583.33,1062.5l2500,583.333" style="fill:none;fill-rule:nonzero;stroke:#334155;stroke-width:12.5px;"/><path d="M1583.33,1854.17l2500,-208.334" style="fill:none;fill-rule:nonzero;stroke:#334155;stroke-width:12.5px;"/><path d="M1583.33,2645.83l2500,-1000" style="fill:none;fill-rule:nonzero;stroke:#334155;stroke-width:12.5px;"/><path d="M3464.09,1130.81l604.533,503.251" style="fill:none;fill-rule:nonzero;stroke:#334155;stroke-width:13.13px;"/><path d="M3375,2312.5l708.333,-666.667" style="fill:none;fill-rule:nonzero;stroke:#334155;stroke-width:12.5px;"/><path d="M5333.33,2616.67l0,329.166c0,41.394 -33.606,75 -75,75l-1100,0c-41.393,0 -75,-33.606 -75,-75l0,-329.166c0,-41.394 33.607,-75 75,-75l1100,-0c41.394,-0 75,33.606 75,75Z" style="fill:#fff;stroke:#cbd5e1;stroke-width:8.33px;"/><text x="4183.33px" y="2716.67px" style="font-family:'AppleColorEmoji', 'Apple Color Emoji';font-size:66.667px;fill:#0f172a;">🌐</text><text x="4366.67px" y="2725px" style="font-family:'ArialMT', 'Arial', sans-serif;font-size:66.667px;fill:#0f172a;">Consumers</text><text x="4183.33px" y="2866.67px" style="font-family:'ArialMT', 'Arial', sans-serif;font-size:66.667px;fill:#475569;">Researchers · apps · data portals</text><path d="M4708.33,2000l0,541.667" style="fill:none;fill-rule:nonzero;stroke:#334155;stroke-width:12.5px;"/></svg>