<?xml version="1.0" encoding="UTF-8" standalone="no"?><!DOCTYPE svg PUBLIC "-//W3C//DTD SVG 1.1//EN" "http://www.w3.org/Graphics/SVG/1.1/DTD/svg11.dtd"><svg width="100%" height="100%" viewBox="0 0 5834 3542" version="1.1" xmlns="http://www.w3.org/2000/svg" xmlns:xlink="http://www.w3.org/1999/xlink" xml:space="preserve" xmlns:serif="http://www.serif.com/" style="fill-rule:evenodd;clip-rule:evenodd;"><rect x="0" y="0" width="5833.33" height="3541.67" style="fill:#f8fafc;"/><g transform="matrix(66.6667,0,0,66.6667,730.469,291.667)"></g><g transform="matrix(66.6667,0,0,66.6667,748.991,291.667)"></g><text x="250px" y="291.667px" style="font-family:'ArialMT', 'Arial', sans-serif;font-size:66.667px;fill:#0f172a;">Publishing W<tspan x="637.858px 674.935px " y="291.667px 291.667px ">or</tspan>kﬂow</text><text x="250px" y="450px" style="font-family:'ArialMT', 'Arial', sans-serif;font-size:66.667px;fill:#475569;">From physical zoo information to open, reusable biodiversity data</text><path d="M1208.33,1075l0,433.333c0,41.394 -33.606,75 -75,75l-766.666,0c-41.394,0 -75,-33.606 -75,-75l-0,-433.333c-0,-41.394 33.606,-75 75,-75l766.666,0c41.394,0 75,33.606 75,75Z" style="fill:#eef6ff;stroke:#93c5fd;stroke-width:8.33px;"/><text x="391.667px" y="1175px" style="font-family:'AppleColorEmoji', 'Apple Color Emoji';font-size:66.667px;fill:#0f172a;">📷</text><text x="575px" y="1183.33px" style="font-family:'ArialMT', 'Arial', sans-serif;font-size:66.667px;fill:#0f172a;">OCR / <tspan x="775.033px 819.499px " y="1183.33px 1183.33px ">Ad</tspan>min Entry</text><text x="391.667px" y="1325px" style="font-family:'ArialMT', 'Arial', sans-serif;font-size:66.667px;fill:#475569;">Species is added or edited</text><path d="M2270.83,1075l0,433.333c0,41.394 -33.606,75 -75,75l-766.666,0c-41.394,0 -75,-33.606 -75,-75l-0,-433.333c-0,-41.394 33.606,-75 75,-75l766.666,0c41.394,0 75,33.606 75,75Z" style="fill:#eef6ff;stroke:#93c5fd;stroke-width:8.33px;"/><text x="1454.17px" y="1175px" style="font-family:'AppleColorEmoji', 'Apple Color Emoji';font-size:66.667px;fill:#0f172a;">📚</text><text x="1637.5px" y="1183.33px" style="font-family:'ArialMT', 'Arial', sans-serif;font-size:66.667px;fill:#0f172a;">Wikidata Lookup</text><text x="1454.17px" y="1325px" style="font-family:'ArialMT', 'Arial', sans-serif;font-size:66.667px;fill:#475569;">Q-ID, labels, taxonomy</text><path d="M3333.33,1075l0,433.333c0,41.394 -33.606,75 -75,75l-766.666,0c-41.394,0 -75,-33.606 -75,-75l-0,-433.333c-0,-41.394 33.606,-75 75,-75l766.666,0c41.394,0 75,33.606 75,75Z" style="fill:#f0fdf4;stroke:#86efac;stroke-width:8.33px;"/><text x="2516.67px" y="1175px" style="font-family:'AppleColorEmoji', 'Apple Color Emoji';font-size:66.667px;fill:#0f172a;">🧬</text><text x="2700px" y="1183.33px" style="font-family:'ArialMT', 'Arial', sans-serif;font-size:66.667px;fill:#0f172a;">GBIF Resolution</text><text x="2516.67px" y="1325px" style="font-family:'ArialMT', 'Arial', sans-serif;font-size:66.667px;fill:#475569;">Backbone taxon key</text><path d="M4395.83,1075l0,433.333c0,41.394 -33.606,75 -75,75l-766.666,0c-41.394,0 -75,-33.606 -75,-75l-0,-433.333c-0,-41.394 33.606,-75 75,-75l766.666,0c41.394,0 75,33.606 75,75Z" style="fill:#fff7ed;stroke:#fdba74;stroke-width:8.33px;"/><text x="3579.17px" y="1175px" style="font-family:'AppleColorEmoji', 'Apple Color Emoji';font-size:66.667px;fill:#0f172a;">🗄️</text><text x="3762.5px" y="1183.33px" style="font-family:'ArialMT', 'Arial', sans-serif;font-size:66.667px;fill:#0f172a;">Store Record</text><text x="3579.17px" y="1325px" style="font-family:'ArialMT', 'Arial', sans-serif;font-size:66.667px;fill:#475569;">PostgreSQL<tspan x="3939.84px 3958.37px " y="1325px 1325px "> s</tspan>ource data</text><path d="M5458.33,1075l0,433.333c0,41.394 -33.606,75 -75,75l-766.666,0c-41.394,0 -75,-33.606 -75,-75l-0,-433.333c-0,-41.394 33.606,-75 75,-75l766.666,0c41.394,0 75,33.606 75,75Z" style="fill:#fff7ed;stroke:#fdba74;stroke-width:8.33px;"/><text x="4641.67px" y="1175px" style="font-family:'AppleColorEmoji', 'Apple Color Emoji';font-size:66.667px;fill:#0f172a;">📤</text><text x="4825px" y="1183.33px" style="font-family:'ArialMT', 'Arial', sans-serif;font-size:66.667px;fill:#0f172a;">Publish</text><text x="4641.67px" y="1325px" style="font-family:'ArialMT', 'Arial', sans-serif;font-size:66.667px;fill:#475569;">REST<tspan x="4818.26px 4836.78px " y="1325px 1325px "> ·</tspan> RSS · SQLite</text><path d="M1208.33,1291.67l145.834,-0" style="fill:none;fill-rule:nonzero;stroke:#334155;stroke-width:12.5px;"/><path d="M2270.83,1291.67l145.834,-0" style="fill:none;fill-rule:nonzero;stroke:#334155;stroke-width:12.5px;"/><path d="M3333.33,1291.67l145.834,-0" style="fill:none;fill-rule:nonzero;stroke:#334155;stroke-width:12.5px;"/><path d="M4395.83,1291.67l145.834,-0" style="fill:none;fill-rule:nonzero;stroke:#334155;stroke-width:12.5px;"/><path d="M2734.89,2262.5l-0,350c-0,41.394 -33.607,75 -75,75l-1564.06,0c-41.393,0 -75,-33.606 -75,-75l0,-350c0,-41.394 33.607,-75 75,-75l1564.06,0c41.393,0 75,33.606 75,75Z" style="fill:#fff;stroke:#cbd5e1;stroke-width:9.6px;"/><text x="1120.83px" y="2362.5px" style="font-family:'AppleColorEmoji', 'Apple Color Emoji';font-size:66.667px;fill:#0f172a;">🔗</text><text x="1304.17px" y="2370.83px" style="font-family:'ArialMT', 'Arial', sans-serif;font-size:66.667px;fill:#0f172a;">Linked Biodiversity Data</text><g transform="matrix(66.6667,0,0,66.6667,1858.2,2512.5)"></g><g transform="matrix(66.6667,0,0,66.6667,1876.73,2512.5)"></g><text x="1120.83px" y="2512.5px" style="font-family:'ArialMT', 'Arial', sans-serif;font-size:66.667px;fill:#475569;">Wikidata and GBIF identiﬁers make records reusable</text><path d="M5336.49,2262.5l-0,350c-0,41.394 -33.606,75 -75,75l-1769.83,0c-41.394,0 -75,-33.606 -75,-75l-0,-350c-0,-41.394 33.606,-75 75,-75l1769.83,0c41.394,0 75,33.606 75,75Z" style="fill:#fff;stroke:#cbd5e1;stroke-width:10.33px;"/><text x="3516.67px" y="2362.5px" style="font-family:'AppleColorEmoji', 'Apple Color Emoji';font-size:66.667px;fill:#0f172a;">💾</text><g transform="matrix(66.6667,0,0,66.6667,3770.38,2370.83)"></g><g transform="matrix(66.6667,0,0,66.6667,3788.9,2370.83)"></g><text x="3700px" y="2370.83px" style="font-family:'ArialMT', 'Arial', sans-serif;font-size:66.667px;fill:#0f172a;">Ofﬂine V<tspan x="3954.46px 3969.27px " y="2370.83px 2370.83px ">is</tspan>itor Data</text><text x="3516.67px" y="2512.5px" style="font-family:'ArialMT', 'Arial', sans-serif;font-size:66.667px;fill:#475569;">SQLite bundles make zoo data usable without connectivity</text><path d="M2875,1583.33l-1187.5,604.167" style="fill:none;fill-rule:nonzero;stroke:#64748b;stroke-width:12.5px;stroke-dasharray:33.33,33.33;"/><path d="M3937.5,1583.33l145.833,604.167" style="fill:none;fill-rule:nonzero;stroke:#64748b;stroke-width:12.5px;stroke-dasharray:33.33,33.33;"/></svg>